# xmcd CD database file
#
# Track frame offsets:
#	150
#	23126
#	42738
#	52517
#	67650
#	76847
#	94737
#	111398
#	127195
#	141942
#	156389
#	170862
#	187353
#	194734
#	207959
#
# Disc length: 2987 seconds
#
# Revision: 1
# Processed by: cddbd v1.5.2PL0 Copyright (c) Steve Scherf et al.
# Submitted via: CDex 1.51
#
DISCID=e20ba90f
DTITLE=Hayley Westenra - Treasure
DYEAR=2007
DGENRE=New Age
TTITLE0=Let Me Lie
TTITLE1=Le Note Del Silenzio
TTITLE2=Santa Lucia
TTITLE3=Shenandoah
TTITLE4=Whispering Hope
TTITLE5=Summer Rain
TTITLE6=Danny Boy
TTITLE7=One Fine Day
TTITLE8=The Heart Worships
TTITLE9=E Pari Ra
TTITLE10=Sonny
TTITLE11=Summer Fly
TTITLE12=Melancholy Interlude
TTITLE13=Bist Du Bei Mir
TTITLE14=Abide With Me
EXTD=YEAR: 2007
EXTT0=
EXTT1=
EXTT2=
EXTT3=
EXTT4=
EXTT5=
EXTT6=
EXTT7=
EXTT8=
EXTT9=
EXTT10=
EXTT11=
EXTT12=
EXTT13=
EXTT14=
PLAYORDER=
